<mxfile host="Electron" agent="Mozilla/5.0 (Windows NT 10.0; Win64; x64) AppleWebKit/537.36 (KHTML, like Gecko) draw.io/24.7.8 Chrome/128.0.6613.36 Electron/32.0.1 Safari/537.36" version="24.7.8">
  <diagram name="Страница — 1" id="HQVvpUEt60Cum8giMxy3">
    <mxGraphModel dx="1909" dy="1216" grid="1" gridSize="10" guides="1" tooltips="1" connect="1" arrows="1" fold="1" page="1" pageScale="1" pageWidth="827" pageHeight="1169" math="0" shadow="0">
      <root>
        <mxCell id="0" />
        <mxCell id="1" parent="0" />
        <mxCell id="GkFkbh34JceR2HCUxjR3-25" value="" style="rounded=0;whiteSpace=wrap;html=1;fillColor=#fff2cc;strokeColor=#d6b656;" vertex="1" parent="1">
          <mxGeometry y="240" width="1190" height="930" as="geometry" />
        </mxCell>
        <mxCell id="GkFkbh34JceR2HCUxjR3-1" value="&lt;font style=&quot;font-size: 16px;&quot;&gt;&lt;b&gt;Пользователь&lt;/b&gt;&lt;/font&gt;" style="shape=umlActor;verticalLabelPosition=bottom;verticalAlign=top;html=1;outlineConnect=0;" vertex="1" parent="1">
          <mxGeometry x="50" y="620" width="100" height="210" as="geometry" />
        </mxCell>
        <mxCell id="GkFkbh34JceR2HCUxjR3-2" value="" style="rounded=0;whiteSpace=wrap;html=1;fillColor=#f8cecc;strokeColor=#b85450;dashed=1;dashPattern=12 12;" vertex="1" parent="1">
          <mxGeometry x="250" y="280" width="890" height="870" as="geometry" />
        </mxCell>
        <mxCell id="GkFkbh34JceR2HCUxjR3-3" value="&lt;font style=&quot;font-size: 16px;&quot;&gt;Посмотреть изображение с камер&lt;/font&gt;" style="ellipse;whiteSpace=wrap;html=1;" vertex="1" parent="1">
          <mxGeometry x="294" y="390" width="240" height="170" as="geometry" />
        </mxCell>
        <mxCell id="GkFkbh34JceR2HCUxjR3-5" value="&lt;font style=&quot;font-size: 16px;&quot;&gt;Вызвать экстренные службы&lt;/font&gt;" style="ellipse;whiteSpace=wrap;html=1;" vertex="1" parent="1">
          <mxGeometry x="294" y="850" width="240" height="170" as="geometry" />
        </mxCell>
        <mxCell id="GkFkbh34JceR2HCUxjR3-6" value="&lt;font style=&quot;font-size: 16px;&quot;&gt;Включить/отключить камеры&lt;/font&gt;" style="ellipse;whiteSpace=wrap;html=1;" vertex="1" parent="1">
          <mxGeometry x="294" y="585" width="240" height="170" as="geometry" />
        </mxCell>
        <mxCell id="GkFkbh34JceR2HCUxjR3-15" style="rounded=0;orthogonalLoop=1;jettySize=auto;html=1;dashed=1;dashPattern=12 12;" edge="1" parent="1" source="GkFkbh34JceR2HCUxjR3-7" target="GkFkbh34JceR2HCUxjR3-3">
          <mxGeometry relative="1" as="geometry" />
        </mxCell>
        <mxCell id="GkFkbh34JceR2HCUxjR3-16" style="rounded=0;orthogonalLoop=1;jettySize=auto;html=1;dashed=1;dashPattern=12 12;" edge="1" parent="1" source="GkFkbh34JceR2HCUxjR3-7" target="GkFkbh34JceR2HCUxjR3-6">
          <mxGeometry relative="1" as="geometry" />
        </mxCell>
        <mxCell id="GkFkbh34JceR2HCUxjR3-7" value="&lt;span style=&quot;font-size: 16px;&quot;&gt;Выбрать конкретную камеру по фильтрам&lt;/span&gt;" style="ellipse;whiteSpace=wrap;html=1;" vertex="1" parent="1">
          <mxGeometry x="750" y="490" width="240" height="170" as="geometry" />
        </mxCell>
        <mxCell id="GkFkbh34JceR2HCUxjR3-17" style="rounded=0;orthogonalLoop=1;jettySize=auto;html=1;dashed=1;dashPattern=12 12;exitX=1;exitY=0.5;exitDx=0;exitDy=0;entryX=0.023;entryY=0.568;entryDx=0;entryDy=0;entryPerimeter=0;" edge="1" parent="1" source="GkFkbh34JceR2HCUxjR3-5" target="GkFkbh34JceR2HCUxjR3-8">
          <mxGeometry relative="1" as="geometry" />
        </mxCell>
        <mxCell id="GkFkbh34JceR2HCUxjR3-8" value="&lt;span style=&quot;font-size: 16px;&quot;&gt;Автоматически отправить короткое сообщение с необходимыми данными&lt;/span&gt;" style="ellipse;whiteSpace=wrap;html=1;" vertex="1" parent="1">
          <mxGeometry x="750" y="760" width="240" height="170" as="geometry" />
        </mxCell>
        <mxCell id="GkFkbh34JceR2HCUxjR3-19" style="rounded=0;orthogonalLoop=1;jettySize=auto;html=1;entryX=0.023;entryY=0.441;entryDx=0;entryDy=0;dashed=1;dashPattern=12 12;entryPerimeter=0;exitX=0.97;exitY=0.703;exitDx=0;exitDy=0;exitPerimeter=0;" edge="1" parent="1" source="GkFkbh34JceR2HCUxjR3-5" target="GkFkbh34JceR2HCUxjR3-9">
          <mxGeometry relative="1" as="geometry">
            <mxPoint x="459.999090909091" y="1184.9999999999998" as="sourcePoint" />
            <mxPoint x="617.3399999999998" y="970" as="targetPoint" />
          </mxGeometry>
        </mxCell>
        <mxCell id="GkFkbh34JceR2HCUxjR3-9" value="&lt;span style=&quot;font-size: 16px;&quot;&gt;Позвонить диспетчеру&lt;/span&gt;" style="ellipse;whiteSpace=wrap;html=1;" vertex="1" parent="1">
          <mxGeometry x="750" y="950" width="240" height="170" as="geometry" />
        </mxCell>
        <mxCell id="GkFkbh34JceR2HCUxjR3-11" style="rounded=0;orthogonalLoop=1;jettySize=auto;html=1;" edge="1" parent="1" source="GkFkbh34JceR2HCUxjR3-1" target="GkFkbh34JceR2HCUxjR3-6">
          <mxGeometry relative="1" as="geometry" />
        </mxCell>
        <mxCell id="GkFkbh34JceR2HCUxjR3-12" style="rounded=0;orthogonalLoop=1;jettySize=auto;html=1;entryX=0;entryY=0.5;entryDx=0;entryDy=0;" edge="1" parent="1" source="GkFkbh34JceR2HCUxjR3-1" target="GkFkbh34JceR2HCUxjR3-3">
          <mxGeometry relative="1" as="geometry" />
        </mxCell>
        <mxCell id="GkFkbh34JceR2HCUxjR3-13" style="rounded=0;orthogonalLoop=1;jettySize=auto;html=1;entryX=0;entryY=0.5;entryDx=0;entryDy=0;" edge="1" parent="1" source="GkFkbh34JceR2HCUxjR3-1" target="GkFkbh34JceR2HCUxjR3-5">
          <mxGeometry relative="1" as="geometry" />
        </mxCell>
        <mxCell id="GkFkbh34JceR2HCUxjR3-20" value="&lt;font style=&quot;font-size: 16px;&quot;&gt;extend&lt;/font&gt;" style="text;html=1;align=center;verticalAlign=middle;whiteSpace=wrap;rounded=0;" vertex="1" parent="1">
          <mxGeometry x="630" y="630" width="60" height="30" as="geometry" />
        </mxCell>
        <mxCell id="GkFkbh34JceR2HCUxjR3-22" value="&lt;font style=&quot;font-size: 16px;&quot;&gt;include&lt;/font&gt;" style="text;html=1;align=center;verticalAlign=middle;whiteSpace=wrap;rounded=0;" vertex="1" parent="1">
          <mxGeometry x="630" y="850" width="60" height="30" as="geometry" />
        </mxCell>
        <mxCell id="GkFkbh34JceR2HCUxjR3-23" value="&lt;font style=&quot;font-size: 16px;&quot;&gt;include&lt;/font&gt;" style="text;html=1;align=center;verticalAlign=middle;whiteSpace=wrap;rounded=0;" vertex="1" parent="1">
          <mxGeometry x="630" y="960" width="60" height="30" as="geometry" />
        </mxCell>
        <mxCell id="GkFkbh34JceR2HCUxjR3-24" value="&lt;font style=&quot;font-size: 16px;&quot;&gt;extend&lt;/font&gt;" style="text;html=1;align=center;verticalAlign=middle;whiteSpace=wrap;rounded=0;" vertex="1" parent="1">
          <mxGeometry x="630" y="490" width="60" height="30" as="geometry" />
        </mxCell>
      </root>
    </mxGraphModel>
  </diagram>
</mxfile>
